<?xml version="1.0" standalone="no"?>
<!DOCTYPE svg PUBLIC "-//W3C//DTD SVG 20010904//EN"
 "http://www.w3.org/TR/2001/REC-SVG-20010904/DTD/svg10.dtd">
<svg version="1.0" xmlns="http://www.w3.org/2000/svg"
 width="552.000000pt" height="485.000000pt" viewBox="0 0 552.000000 485.000000"
 preserveAspectRatio="xMidYMid meet">

<g transform="translate(0.000000,485.000000) scale(0.100000,-0.100000)"
fill="#000000" stroke="none">
<path d="M1455 4590 c-22 -11 -51 -36 -65 -57 -23 -34 -25 -46 -29 -185 l-3
-148 1502 0 1502 0 -4 148 c-4 166 -13 195 -75 237 l-38 25 -1375 0 c-1353 0
-1376 0 -1415 -20z"/>
<path d="M1362 3042 c3 -854 5 -1032 17 -1045 12 -16 128 -17 1482 -17 l1468
0 13 23 c10 17 14 234 16 1045 l3 1022 -1501 0 -1501 0 3 -1028z m979 499 c35
-32 131 -129 213 -215 l149 -157 -54 -56 c-83 -85 -336 -320 -364 -339 -32
-21 -68 -12 -83 21 -7 14 -12 29 -12 32 0 3 76 83 169 177 l170 171 -160 168
c-131 138 -159 173 -159 197 0 28 30 60 56 60 6 0 40 -26 75 -59z m1220 -690
c25 -30 24 -53 -2 -77 -20 -18 -42 -19 -429 -19 -387 0 -409 1 -429 19 -43 39
-17 90 49 99 19 2 205 4 413 3 l379 -1 19 -24z"/>
<path d="M4517 1230 c-58 -10 -129 -50 -157 -89 -25 -36 -50 -104 -50 -137 0
-23 -3 -24 -70 -24 l-70 0 0 -60 0 -60 70 0 70 0 0 -185 0 -185 -70 0 -70 0 0
-60 0 -60 205 0 205 0 0 60 0 60 -70 0 -70 0 0 185 0 185 120 0 120 0 0 60 0
60 -121 0 -121 0 7 33 c19 86 52 107 166 107 l69 0 0 60 0 60 -57 -1 c-32 -1
-79 -5 -106 -9z"/>
<path d="M252 1073 c-28 -87 -88 -279 -135 -428 l-85 -270 60 -3 c34 -2 66 -1
72 1 7 3 25 50 40 106 l29 102 145 -3 145 -3 30 -103 30 -103 66 3 c60 3 66 5
63 23 -2 11 -60 203 -130 428 l-127 407 -77 0 -77 0 -49 -157z m181 -200 c25
-86 44 -160 41 -165 -6 -9 -187 -11 -196 -2 -4 3 0 24 7 47 8 23 30 95 50 160
19 64 39 117 44 117 4 0 29 -71 54 -157z"/>
<path d="M2700 1151 l0 -78 38 -7 c20 -3 56 -6 80 -6 l42 0 0 85 0 85 -80 0
-80 0 0 -79z"/>
<path d="M3500 1151 l0 -78 38 -7 c20 -3 56 -6 80 -6 l42 0 0 85 0 85 -80 0
-80 0 0 -79z"/>
<path d="M1080 987 c-75 -18 -134 -50 -162 -89 -18 -26 -23 -46 -23 -95 0
-110 47 -144 265 -193 170 -39 198 -60 144 -111 -23 -22 -34 -24 -117 -24 -76
0 -106 5 -174 29 -91 32 -96 31 -129 -30 -19 -35 -19 -36 1 -50 11 -8 56 -26
100 -40 111 -35 276 -37 353 -4 61 26 107 74 121 127 14 51 14 61 -8 110 -30
64 -76 89 -232 122 -154 34 -187 45 -195 66 -26 67 184 98 304 44 25 -10 46
-19 47 -19 2 0 15 21 30 47 27 45 27 47 9 60 -60 44 -242 71 -334 50z"/>
<path d="M1873 982 c-85 -28 -136 -71 -173 -145 -87 -177 -27 -373 138 -454
49 -24 68 -27 147 -27 108 0 186 21 238 64 l37 32 -27 39 c-16 21 -34 39 -41
39 -7 0 -36 -12 -64 -26 -89 -45 -200 -42 -263 8 -36 28 -75 113 -75 164 0 54
46 143 88 171 19 12 53 25 77 29 81 12 157 -49 171 -138 l7 -38 58 0 59 0 0
140 0 140 -60 0 -60 0 0 -37 0 -37 -32 31 c-44 41 -65 51 -124 57 -33 4 -66 0
-101 -12z"/>
<path d="M2570 920 l0 -60 70 0 70 0 0 -185 0 -185 -70 0 -70 0 0 -60 0 -60
205 0 205 0 0 60 0 60 -70 0 -70 0 0 245 0 245 -135 0 -135 0 0 -60z"/>
<path d="M3370 920 l0 -60 70 0 70 0 0 -185 0 -185 -70 0 -70 0 0 -60 0 -60
205 0 205 0 0 60 0 60 -70 0 -70 0 0 245 0 245 -135 0 -135 0 0 -60z"/>
<path d="M4870 977 c0 -2 52 -142 115 -312 126 -334 125 -330 75 -395 -17 -23
-26 -25 -91 -25 l-72 0 -12 -53 c-12 -50 -11 -53 9 -64 33 -19 154 -16 207 5
81 31 76 21 268 549 56 152 101 282 101 287 0 7 -27 11 -68 11 l-67 0 -73
-213 c-40 -117 -77 -218 -81 -226 -9 -14 -25 25 -121 292 l-53 147 -69 0 c-37
0 -68 -2 -68 -3z"/>
</g>
</svg>
